<svg width="143" height="60" viewBox="0 0 143 60" fill="none" xmlns="http://www.w3.org/2000/svg">
<path d="M11.03 8.155C10.962 8.563 10.8317 8.93133 10.639 9.26C10.4577 9.57733 10.2367 9.84933 9.976 10.076C9.71533 10.3027 9.415 10.4783 9.075 10.603C8.74633 10.7163 8.395 10.773 8.021 10.773C7.477 10.773 6.984 10.6767 6.542 10.484C6.1 10.2913 5.72033 10.025 5.403 9.685C5.08567 9.33367 4.842 8.92567 4.672 8.461C4.502 7.985 4.417 7.475 4.417 6.931C4.417 6.421 4.49633 5.945 4.655 5.503C4.825 5.04967 5.063 4.66433 5.369 4.347C5.675 4.01833 6.049 3.75767 6.491 3.565C6.933 3.37233 7.43167 3.276 7.987 3.276C8.769 3.276 9.43767 3.497 9.993 3.939C10.5597 4.36967 10.8997 5.00433 11.013 5.843H9.857C9.76633 5.41233 9.551 5.061 9.211 4.789C8.88233 4.517 8.47433 4.381 7.987 4.381C7.62433 4.381 7.307 4.449 7.035 4.585C6.763 4.721 6.53067 4.90233 6.338 5.129C6.15667 5.35567 6.015 5.62767 5.913 5.945C5.82233 6.251 5.777 6.57967 5.777 6.931C5.777 7.305 5.828 7.65633 5.93 7.985C6.032 8.31367 6.17933 8.60267 6.372 8.852C6.576 9.10133 6.814 9.29967 7.086 9.447C7.36933 9.59433 7.681 9.668 8.021 9.668C8.531 9.668 8.95033 9.52633 9.279 9.243C9.60767 8.95967 9.80033 8.597 9.857 8.155H11.03ZM12.679 6.931C12.679 6.16033 12.5543 5.452 12.305 4.806C12.0557 4.16 11.71 3.60467 11.268 3.14C10.826 2.67533 10.3103 2.31833 9.721 2.069C9.13167 1.80833 8.497 1.678 7.817 1.678C7.12567 1.678 6.47967 1.80833 5.879 2.069C5.28967 2.31833 4.774 2.67533 4.332 3.14C3.89 3.60467 3.54433 4.16 3.295 4.806C3.04567 5.452 2.921 6.16033 2.921 6.931C2.921 7.65633 3.03433 8.33633 3.261 8.971C3.48767 9.60567 3.81067 10.161 4.23 10.637C4.66067 11.113 5.17633 11.4927 5.777 11.776C6.37767 12.048 7.05767 12.184 7.817 12.184C8.497 12.184 9.13167 12.0593 9.721 11.81C10.3103 11.5493 10.826 11.1867 11.268 10.722C11.71 10.2573 12.0557 9.70767 12.305 9.073C12.5543 8.427 12.679 7.713 12.679 6.931ZM14.039 6.931C14.039 7.883 13.869 8.75 13.529 9.532C13.2003 10.314 12.747 10.9827 12.169 11.538C11.6023 12.0933 10.9393 12.524 10.18 12.83C9.432 13.136 8.64433 13.289 7.817 13.289C6.899 13.289 6.05467 13.1303 5.284 12.813C4.52467 12.4843 3.86733 12.0367 3.312 11.47C2.768 10.9033 2.33733 10.2347 2.02 9.464C1.714 8.682 1.561 7.83767 1.561 6.931C1.561 5.979 1.72533 5.112 2.054 4.33C2.394 3.548 2.84733 2.87933 3.414 2.324C3.992 1.76867 4.66067 1.338 5.42 1.032C6.17933 0.726 6.97833 0.573 7.817 0.573C8.64433 0.573 9.432 0.726 10.18 1.032C10.9393 1.338 11.6023 1.76867 12.169 2.324C12.747 2.87933 13.2003 3.548 13.529 4.33C13.869 5.112 14.039 5.979 14.039 6.931ZM19.2431 0.861999H21.4531L24.4961 10.467H24.5301L27.6411 0.861999H29.8001L25.6521 13H23.2891L19.2431 0.861999ZM31.0127 0.861999H33.1377V13H31.0127V0.861999ZM34.5881 0.861999H44.4141V2.698H40.5551V13H38.4301V2.698H34.5881V0.861999ZM50.9893 2.307C50.3433 2.307 49.7823 2.43733 49.3063 2.698C48.8416 2.95867 48.462 3.31 48.1673 3.752C47.8726 4.18267 47.6516 4.67567 47.5043 5.231C47.3683 5.78633 47.3003 6.353 47.3003 6.931C47.3003 7.509 47.3683 8.07567 47.5043 8.631C47.6516 9.18633 47.8726 9.685 48.1673 10.127C48.462 10.5577 48.8416 10.9033 49.3063 11.164C49.7823 11.4247 50.3433 11.555 50.9893 11.555C51.6353 11.555 52.1906 11.4247 52.6553 11.164C53.1313 10.9033 53.5166 10.5577 53.8113 10.127C54.106 9.685 54.3213 9.18633 54.4573 8.631C54.6046 8.07567 54.6783 7.509 54.6783 6.931C54.6783 6.353 54.6046 5.78633 54.4573 5.231C54.3213 4.67567 54.106 4.18267 53.8113 3.752C53.5166 3.31 53.1313 2.95867 52.6553 2.698C52.1906 2.43733 51.6353 2.307 50.9893 2.307ZM50.9893 0.573C51.896 0.573 52.7063 0.743 53.4203 1.083C54.1456 1.423 54.7576 1.882 55.2563 2.46C55.755 3.038 56.1346 3.71233 56.3953 4.483C56.6673 5.25367 56.8033 6.06967 56.8033 6.931C56.8033 7.80367 56.6673 8.62533 56.3953 9.396C56.1346 10.1667 55.755 10.841 55.2563 11.419C54.7576 11.997 54.1456 12.456 53.4203 12.796C52.7063 13.1247 51.896 13.289 50.9893 13.289C50.0826 13.289 49.2666 13.1247 48.5413 12.796C47.8273 12.456 47.221 11.997 46.7223 11.419C46.2236 10.841 45.8383 10.1667 45.5663 9.396C45.3056 8.62533 45.1753 7.80367 45.1753 6.931C45.1753 6.06967 45.3056 5.25367 45.5663 4.483C45.8383 3.71233 46.2236 3.038 46.7223 2.46C47.221 1.882 47.8273 1.423 48.5413 1.083C49.2666 0.743 50.0826 0.573 50.9893 0.573ZM58.7373 0.861999H64.5343C65.8716 0.861999 66.8746 1.151 67.5433 1.729C68.212 2.307 68.5463 3.11167 68.5463 4.143C68.5463 4.721 68.4613 5.20267 68.2913 5.588C68.1213 5.962 67.923 6.268 67.6963 6.506C67.4696 6.73267 67.243 6.897 67.0163 6.999C66.801 7.101 66.6423 7.169 66.5403 7.203V7.237C66.7216 7.25967 66.9143 7.31633 67.1183 7.407C67.3336 7.49767 67.532 7.645 67.7133 7.849C67.8946 8.04167 68.042 8.29667 68.1553 8.614C68.28 8.93133 68.3423 9.328 68.3423 9.804C68.3423 10.518 68.3933 11.1697 68.4953 11.759C68.6086 12.337 68.7786 12.7507 69.0053 13H66.7273C66.5686 12.7393 66.4723 12.4503 66.4383 12.133C66.4156 11.8157 66.4043 11.5097 66.4043 11.215C66.4043 10.6597 66.3703 10.1837 66.3023 9.787C66.2343 9.379 66.1096 9.04467 65.9283 8.784C65.747 8.512 65.4976 8.31367 65.1803 8.189C64.8743 8.06433 64.4776 8.002 63.9903 8.002H60.8623V13H58.7373V0.861999ZM60.8623 6.387H64.3473C65.0273 6.387 65.543 6.22833 65.8943 5.911C66.2456 5.58233 66.4213 5.095 66.4213 4.449C66.4213 4.06367 66.3646 3.752 66.2513 3.514C66.138 3.26467 65.9793 3.072 65.7753 2.936C65.5826 2.8 65.356 2.70933 65.0953 2.664C64.846 2.61867 64.5853 2.596 64.3133 2.596H60.8623V6.387ZM76.8325 8.954C76.8325 9.41867 76.9118 9.81533 77.0705 10.144C77.2292 10.4727 77.4502 10.7447 77.7335 10.96C78.0168 11.164 78.3398 11.317 78.7025 11.419C79.0765 11.5097 79.4788 11.555 79.9095 11.555C80.3742 11.555 80.7708 11.504 81.0995 11.402C81.4282 11.2887 81.6945 11.147 81.8985 10.977C82.1025 10.807 82.2498 10.6143 82.3405 10.399C82.4312 10.1723 82.4765 9.94567 82.4765 9.719C82.4765 9.25433 82.3688 8.91433 82.1535 8.699C81.9495 8.47233 81.7228 8.31367 81.4735 8.223C81.0428 8.06433 80.5385 7.917 79.9605 7.781C79.3938 7.63367 78.6912 7.44667 77.8525 7.22C77.3312 7.084 76.8948 6.90833 76.5435 6.693C76.2035 6.46633 75.9315 6.217 75.7275 5.945C75.5235 5.673 75.3762 5.384 75.2855 5.078C75.2062 4.772 75.1665 4.46033 75.1665 4.143C75.1665 3.531 75.2912 3.004 75.5405 2.562C75.8012 2.10867 76.1412 1.73467 76.5605 1.44C76.9798 1.14533 77.4558 0.929999 77.9885 0.793999C78.5212 0.646666 79.0595 0.573 79.6035 0.573C80.2382 0.573 80.8332 0.658 81.3885 0.828C81.9552 0.986666 82.4482 1.23033 82.8675 1.559C83.2982 1.88767 83.6382 2.29567 83.8875 2.783C84.1368 3.259 84.2615 3.81433 84.2615 4.449H82.1365C82.0798 3.667 81.8135 3.11733 81.3375 2.8C80.8615 2.47133 80.2552 2.307 79.5185 2.307C79.2692 2.307 79.0142 2.33533 78.7535 2.392C78.4928 2.43733 78.2548 2.52233 78.0395 2.647C77.8242 2.76033 77.6428 2.919 77.4955 3.123C77.3595 3.327 77.2915 3.582 77.2915 3.888C77.2915 4.31867 77.4218 4.65867 77.6825 4.908C77.9545 5.146 78.3058 5.32733 78.7365 5.452C78.7818 5.46333 78.9575 5.51433 79.2635 5.605C79.5808 5.68433 79.9322 5.775 80.3175 5.877C80.7028 5.979 81.0768 6.081 81.4395 6.183C81.8135 6.27367 82.0798 6.34167 82.2385 6.387C82.6352 6.51167 82.9808 6.68167 83.2755 6.897C83.5702 7.11233 83.8138 7.36167 84.0065 7.645C84.2105 7.917 84.3578 8.21167 84.4485 8.529C84.5505 8.84633 84.6015 9.16367 84.6015 9.481C84.6015 10.161 84.4598 10.7447 84.1765 11.232C83.9045 11.708 83.5418 12.099 83.0885 12.405C82.6352 12.711 82.1195 12.932 81.5415 13.068C80.9635 13.2153 80.3742 13.289 79.7735 13.289C79.0822 13.289 78.4305 13.204 77.8185 13.034C77.2065 12.864 76.6738 12.6033 76.2205 12.252C75.7672 11.9007 75.4045 11.453 75.1325 10.909C74.8605 10.3537 74.7188 9.702 74.7075 8.954H76.8325ZM91.6299 2.307C90.9839 2.307 90.4229 2.43733 89.9469 2.698C89.4823 2.95867 89.1026 3.31 88.8079 3.752C88.5133 4.18267 88.2923 4.67567 88.1449 5.231C88.0089 5.78633 87.9409 6.353 87.9409 6.931C87.9409 7.509 88.0089 8.07567 88.1449 8.631C88.2923 9.18633 88.5133 9.685 88.8079 10.127C89.1026 10.5577 89.4823 10.9033 89.9469 11.164C90.4229 11.4247 90.9839 11.555 91.6299 11.555C92.2759 11.555 92.8313 11.4247 93.2959 11.164C93.7719 10.9033 94.1573 10.5577 94.4519 10.127C94.7466 9.685 94.9619 9.18633 95.0979 8.631C95.2453 8.07567 95.3189 7.509 95.3189 6.931C95.3189 6.353 95.2453 5.78633 95.0979 5.231C94.9619 4.67567 94.7466 4.18267 94.4519 3.752C94.1573 3.31 93.7719 2.95867 93.2959 2.698C92.8313 2.43733 92.2759 2.307 91.6299 2.307ZM91.6299 0.573C92.5366 0.573 93.3469 0.743 94.0609 1.083C94.7863 1.423 95.3983 1.882 95.8969 2.46C96.3956 3.038 96.7753 3.71233 97.0359 4.483C97.3079 5.25367 97.4439 6.06967 97.4439 6.931C97.4439 7.80367 97.3079 8.62533 97.0359 9.396C96.7753 10.1667 96.3956 10.841 95.8969 11.419C95.3983 11.997 94.7863 12.456 94.0609 12.796C93.3469 13.1247 92.5366 13.289 91.6299 13.289C90.7233 13.289 89.9073 13.1247 89.1819 12.796C88.4679 12.456 87.8616 11.997 87.3629 11.419C86.8643 10.841 86.4789 10.1667 86.2069 9.396C85.9463 8.62533 85.8159 7.80367 85.8159 6.931C85.8159 6.06967 85.9463 5.25367 86.2069 4.483C86.4789 3.71233 86.8643 3.038 87.3629 2.46C87.8616 1.882 88.4679 1.423 89.1819 1.083C89.9073 0.743 90.7233 0.573 91.6299 0.573ZM99.2419 0.861999H101.367V7.934C101.367 8.342 101.384 8.75567 101.418 9.175C101.463 9.59433 101.577 9.974 101.758 10.314C101.951 10.6427 102.234 10.9147 102.608 11.13C102.993 11.3453 103.532 11.453 104.223 11.453C104.914 11.453 105.447 11.3453 105.821 11.13C106.206 10.9147 106.49 10.6427 106.671 10.314C106.864 9.974 106.977 9.59433 107.011 9.175C107.056 8.75567 107.079 8.342 107.079 7.934V0.861999H109.204V8.631C109.204 9.413 109.085 10.093 108.847 10.671C108.609 11.249 108.269 11.7363 107.827 12.133C107.396 12.5183 106.875 12.8073 106.263 13C105.651 13.1927 104.971 13.289 104.223 13.289C103.475 13.289 102.795 13.1927 102.183 13C101.571 12.8073 101.044 12.5183 100.602 12.133C100.171 11.7363 99.8369 11.249 99.5989 10.671C99.3609 10.093 99.2419 9.413 99.2419 8.631V0.861999ZM111.289 0.861999H120.52V2.477L113.448 11.164H120.69V13H110.745V11.266L117.817 2.698H111.289V0.861999ZM125.602 0.861999H127.863L132.538 13H130.26L129.121 9.787H124.276L123.137 13H120.943L125.602 0.861999ZM124.854 8.172H128.56L126.741 2.953H126.69L124.854 8.172ZM137.966 7.458H142.913V9.294H137.966V7.458ZM1.102 23.862H3.261L5.454 33.144H5.488L7.936 23.862H10.112L12.492 33.144H12.526L14.787 23.862H16.946L13.597 36H11.438L9.007 26.718H8.973L6.491 36H4.298L1.102 23.862ZM18.3457 23.862H27.0837V25.698H20.4707V28.877H26.5907V30.611H20.4707V34.164H27.2027V36H18.3457V23.862ZM31.1787 28.945H34.6467C35.1567 28.945 35.5817 28.8033 35.9217 28.52C36.2617 28.2253 36.4317 27.806 36.4317 27.262C36.4317 26.65 36.2787 26.2193 35.9727 25.97C35.6667 25.7207 35.2247 25.596 34.6467 25.596H31.1787V28.945ZM29.0537 23.862H34.9527C36.0407 23.862 36.9134 24.1113 37.5707 24.61C38.2281 25.1087 38.5567 25.8623 38.5567 26.871C38.5567 27.483 38.4037 28.01 38.0977 28.452C37.8031 28.8827 37.3781 29.217 36.8227 29.455V29.489C37.5707 29.6477 38.1374 30.0047 38.5227 30.56C38.9081 31.104 39.1007 31.7897 39.1007 32.617C39.1007 33.093 39.0157 33.5407 38.8457 33.96C38.6757 34.368 38.4094 34.725 38.0467 35.031C37.6841 35.3257 37.2194 35.5637 36.6527 35.745C36.0861 35.915 35.4117 36 34.6297 36H29.0537V23.862ZM31.1787 34.266H34.9357C35.5817 34.266 36.0804 34.1017 36.4317 33.773C36.7944 33.433 36.9757 32.957 36.9757 32.345C36.9757 31.7443 36.7944 31.2853 36.4317 30.968C36.0804 30.6393 35.5817 30.475 34.9357 30.475H31.1787V34.266ZM42.4174 31.954C42.4174 32.4187 42.4968 32.8153 42.6554 33.144C42.8141 33.4727 43.0351 33.7447 43.3184 33.96C43.6018 34.164 43.9248 34.317 44.2874 34.419C44.6614 34.5097 45.0638 34.555 45.4944 34.555C45.9591 34.555 46.3558 34.504 46.6844 34.402C47.0131 34.2887 47.2794 34.147 47.4834 33.977C47.6874 33.807 47.8348 33.6143 47.9254 33.399C48.0161 33.1723 48.0614 32.9457 48.0614 32.719C48.0614 32.2543 47.9538 31.9143 47.7384 31.699C47.5344 31.4723 47.3078 31.3137 47.0584 31.223C46.6278 31.0643 46.1234 30.917 45.5454 30.781C44.9788 30.6337 44.2761 30.4467 43.4374 30.22C42.9161 30.084 42.4798 29.9083 42.1284 29.693C41.7884 29.4663 41.5164 29.217 41.3124 28.945C41.1084 28.673 40.9611 28.384 40.8704 28.078C40.7911 27.772 40.7514 27.4603 40.7514 27.143C40.7514 26.531 40.8761 26.004 41.1254 25.562C41.3861 25.1087 41.7261 24.7347 42.1454 24.44C42.5648 24.1453 43.0408 23.93 43.5734 23.794C44.1061 23.6467 44.6444 23.573 45.1884 23.573C45.8231 23.573 46.4181 23.658 46.9734 23.828C47.5401 23.9867 48.0331 24.2303 48.4524 24.559C48.8831 24.8877 49.2231 25.2957 49.4724 25.783C49.7218 26.259 49.8464 26.8143 49.8464 27.449H47.7214C47.6648 26.667 47.3984 26.1173 46.9224 25.8C46.4464 25.4713 45.8401 25.307 45.1034 25.307C44.8541 25.307 44.5991 25.3353 44.3384 25.392C44.0778 25.4373 43.8398 25.5223 43.6244 25.647C43.4091 25.7603 43.2278 25.919 43.0804 26.123C42.9444 26.327 42.8764 26.582 42.8764 26.888C42.8764 27.3187 43.0068 27.6587 43.2674 27.908C43.5394 28.146 43.8908 28.3273 44.3214 28.452C44.3668 28.4633 44.5424 28.5143 44.8484 28.605C45.1658 28.6843 45.5171 28.775 45.9024 28.877C46.2878 28.979 46.6618 29.081 47.0244 29.183C47.3984 29.2737 47.6648 29.3417 47.8234 29.387C48.2201 29.5117 48.5658 29.6817 48.8604 29.897C49.1551 30.1123 49.3988 30.3617 49.5914 30.645C49.7954 30.917 49.9428 31.2117 50.0334 31.529C50.1354 31.8463 50.1864 32.1637 50.1864 32.481C50.1864 33.161 50.0448 33.7447 49.7614 34.232C49.4894 34.708 49.1268 35.099 48.6734 35.405C48.2201 35.711 47.7044 35.932 47.1264 36.068C46.5484 36.2153 45.9591 36.289 45.3584 36.289C44.6671 36.289 44.0154 36.204 43.4034 36.034C42.7914 35.864 42.2588 35.6033 41.8054 35.252C41.3521 34.9007 40.9894 34.453 40.7174 33.909C40.4454 33.3537 40.3038 32.702 40.2924 31.954H42.4174ZM52.0469 23.862H54.1719V36H52.0469V23.862ZM55.6223 23.862H65.4483V25.698H61.5893V36H59.4643V25.698H55.6223V23.862ZM66.8555 23.862H75.5935V25.698H68.9805V28.877H75.1005V30.611H68.9805V34.164H75.7125V36H66.8555V23.862ZM88.7719 34.64C88.3186 35.1953 87.8143 35.6033 87.2589 35.864C86.7149 36.1133 86.0859 36.238 85.3719 36.238C84.8166 36.238 84.3009 36.1587 83.8249 36C83.3603 35.83 82.9579 35.592 82.6179 35.286C82.2779 34.98 82.0116 34.606 81.8189 34.164C81.6376 33.7107 81.5469 33.2007 81.5469 32.634C81.5469 32.2033 81.6263 31.8123 81.7849 31.461C81.9436 31.1097 82.1533 30.7923 82.4139 30.509C82.6746 30.2143 82.9693 29.9537 83.2979 29.727C83.6379 29.5003 83.9836 29.2963 84.3349 29.115C84.1763 28.911 84.0233 28.7127 83.8759 28.52C83.7286 28.316 83.5983 28.1063 83.4849 27.891C83.3716 27.6757 83.2809 27.449 83.2129 27.211C83.1449 26.973 83.1109 26.7237 83.1109 26.463C83.1109 26.021 83.1846 25.6243 83.3319 25.273C83.4906 24.9217 83.7059 24.6213 83.9779 24.372C84.2499 24.1113 84.5673 23.913 84.9299 23.777C85.2926 23.641 85.6779 23.573 86.0859 23.573C86.4713 23.573 86.8453 23.6353 87.2079 23.76C87.5819 23.8733 87.9049 24.0547 88.1769 24.304C88.4603 24.542 88.6869 24.8423 88.8569 25.205C89.0269 25.5677 89.1119 25.9927 89.1119 26.48C89.1119 26.8427 89.0496 27.177 88.9249 27.483C88.8116 27.789 88.6529 28.0723 88.4489 28.333C88.2563 28.5823 88.0239 28.809 87.7519 29.013C87.4913 29.217 87.2136 29.3983 86.9189 29.557L88.8059 31.835C88.8739 31.6423 88.9419 31.4213 89.0099 31.172C89.0779 30.9227 89.1346 30.5997 89.1799 30.203H90.8799C90.8233 30.7357 90.7156 31.257 90.5569 31.767C90.4096 32.277 90.1999 32.7473 89.9279 33.178L92.2569 36H89.8769L88.7719 34.64ZM85.3549 30.39C85.1736 30.5033 84.9753 30.6167 84.7599 30.73C84.5446 30.8433 84.3406 30.985 84.1479 31.155C83.9666 31.325 83.8079 31.529 83.6719 31.767C83.5473 32.005 83.4849 32.3053 83.4849 32.668C83.4849 33.3253 83.6663 33.8297 84.0289 34.181C84.4029 34.5323 84.8733 34.708 85.4399 34.708C85.7913 34.708 86.0916 34.6627 86.3409 34.572C86.5903 34.47 86.7999 34.351 86.9699 34.215C87.1513 34.079 87.2986 33.9317 87.4119 33.773C87.5366 33.6143 87.6443 33.4727 87.7349 33.348L85.3549 30.39ZM86.1369 25.018C85.7743 25.018 85.4683 25.1427 85.2189 25.392C84.9696 25.63 84.8449 25.953 84.8449 26.361C84.8449 26.565 84.8789 26.7577 84.9469 26.939C85.0263 27.109 85.1169 27.279 85.2189 27.449C85.3323 27.6077 85.4513 27.7663 85.5759 27.925C85.7119 28.0837 85.8366 28.2367 85.9499 28.384C86.1313 28.2593 86.3069 28.1347 86.4769 28.01C86.6469 27.874 86.7999 27.7323 86.9359 27.585C87.0719 27.4263 87.1796 27.2507 87.2589 27.058C87.3383 26.8653 87.3779 26.65 87.3779 26.412C87.3779 26.0153 87.2646 25.6867 87.0379 25.426C86.8113 25.154 86.5109 25.018 86.1369 25.018ZM5.539 46.862H7.8L12.475 59H10.197L9.058 55.787H4.213L3.074 59H0.881L5.539 46.862ZM4.791 54.172H8.497L6.678 48.953H6.627L4.791 54.172ZM13.6309 46.862H18.9859C19.8472 46.862 20.5499 46.9867 21.0939 47.236C21.6379 47.4853 22.0572 47.797 22.3519 48.171C22.6465 48.545 22.8449 48.953 22.9469 49.395C23.0602 49.837 23.1169 50.245 23.1169 50.619C23.1169 50.993 23.0602 51.401 22.9469 51.843C22.8449 52.2737 22.6465 52.676 22.3519 53.05C22.0572 53.424 21.6379 53.7357 21.0939 53.985C20.5499 54.223 19.8472 54.342 18.9859 54.342H15.7559V59H13.6309V46.862ZM15.7559 52.608H18.8669C19.1049 52.608 19.3485 52.574 19.5979 52.506C19.8472 52.438 20.0739 52.3303 20.2779 52.183C20.4932 52.0243 20.6632 51.8203 20.7879 51.571C20.9239 51.3103 20.9919 50.9873 20.9919 50.602C20.9919 50.2053 20.9352 49.8767 20.8219 49.616C20.7085 49.3553 20.5555 49.1513 20.3629 49.004C20.1702 48.8453 19.9492 48.7377 19.6999 48.681C19.4505 48.6243 19.1842 48.596 18.9009 48.596H15.7559V52.608ZM24.9697 46.862H30.3247C31.1861 46.862 31.8887 46.9867 32.4327 47.236C32.9767 47.4853 33.3961 47.797 33.6907 48.171C33.9854 48.545 34.1837 48.953 34.2857 49.395C34.3991 49.837 34.4557 50.245 34.4557 50.619C34.4557 50.993 34.3991 51.401 34.2857 51.843C34.1837 52.2737 33.9854 52.676 33.6907 53.05C33.3961 53.424 32.9767 53.7357 32.4327 53.985C31.8887 54.223 31.1861 54.342 30.3247 54.342H27.0947V59H24.9697V46.862ZM27.0947 52.608H30.2057C30.4437 52.608 30.6874 52.574 30.9367 52.506C31.1861 52.438 31.4127 52.3303 31.6167 52.183C31.8321 52.0243 32.0021 51.8203 32.1267 51.571C32.2627 51.3103 32.3307 50.9873 32.3307 50.602C32.3307 50.2053 32.2741 49.8767 32.1607 49.616C32.0474 49.3553 31.8944 49.1513 31.7017 49.004C31.5091 48.8453 31.2881 48.7377 31.0387 48.681C30.7894 48.6243 30.5231 48.596 30.2397 48.596H27.0947V52.608ZM41.04 46.862H46.072C47.0014 46.862 47.806 47.0207 48.486 47.338C49.166 47.6553 49.7214 48.0917 50.152 48.647C50.5827 49.191 50.9 49.8313 51.104 50.568C51.3194 51.3047 51.427 52.0923 51.427 52.931C51.427 53.7697 51.3194 54.5573 51.104 55.294C50.9 56.0307 50.5827 56.6767 50.152 57.232C49.7214 57.776 49.166 58.2067 48.486 58.524C47.806 58.8413 47.0014 59 46.072 59H41.04V46.862ZM43.165 57.266H45.256C46.0834 57.266 46.7577 57.1583 47.279 56.943C47.8117 56.7163 48.2254 56.4103 48.52 56.025C48.826 55.6283 49.03 55.1693 49.132 54.648C49.2454 54.1153 49.302 53.543 49.302 52.931C49.302 52.319 49.2454 51.7523 49.132 51.231C49.03 50.6983 48.826 50.2393 48.52 49.854C48.2254 49.4573 47.8117 49.1513 47.279 48.936C46.7577 48.7093 46.0834 48.596 45.256 48.596H43.165V57.266ZM53.3086 46.862H62.0466V48.698H55.4336V51.877H61.5536V53.611H55.4336V57.164H62.1656V59H53.3086V46.862ZM62.6396 46.862H64.8496L67.8926 56.467H67.9266L71.0376 46.862H73.1966L69.0486 59H66.6856L62.6396 46.862ZM74.4092 46.862H83.1472V48.698H76.5342V51.877H82.6542V53.611H76.5342V57.164H83.2662V59H74.4092V46.862ZM85.1172 46.862H87.2422V57.164H93.4132V59H85.1172V46.862ZM100.047 48.307C99.4009 48.307 98.8399 48.4373 98.3639 48.698C97.8992 48.9587 97.5196 49.31 97.2249 49.752C96.9302 50.1827 96.7092 50.6757 96.5619 51.231C96.4259 51.7863 96.3579 52.353 96.3579 52.931C96.3579 53.509 96.4259 54.0757 96.5619 54.631C96.7092 55.1863 96.9302 55.685 97.2249 56.127C97.5196 56.5577 97.8992 56.9033 98.3639 57.164C98.8399 57.4247 99.4009 57.555 100.047 57.555C100.693 57.555 101.248 57.4247 101.713 57.164C102.189 56.9033 102.574 56.5577 102.869 56.127C103.164 55.685 103.379 55.1863 103.515 54.631C103.662 54.0757 103.736 53.509 103.736 52.931C103.736 52.353 103.662 51.7863 103.515 51.231C103.379 50.6757 103.164 50.1827 102.869 49.752C102.574 49.31 102.189 48.9587 101.713 48.698C101.248 48.4373 100.693 48.307 100.047 48.307ZM100.047 46.573C100.954 46.573 101.764 46.743 102.478 47.083C103.203 47.423 103.815 47.882 104.314 48.46C104.813 49.038 105.192 49.7123 105.453 50.483C105.725 51.2537 105.861 52.0697 105.861 52.931C105.861 53.8037 105.725 54.6253 105.453 55.396C105.192 56.1667 104.813 56.841 104.314 57.419C103.815 57.997 103.203 58.456 102.478 58.796C101.764 59.1247 100.954 59.289 100.047 59.289C99.1402 59.289 98.3242 59.1247 97.5989 58.796C96.8849 58.456 96.2786 57.997 95.7799 57.419C95.2812 56.841 94.8959 56.1667 94.6239 55.396C94.3632 54.6253 94.2329 53.8037 94.2329 52.931C94.2329 52.0697 94.3632 51.2537 94.6239 50.483C94.8959 49.7123 95.2812 49.038 95.7799 48.46C96.2786 47.882 96.8849 47.423 97.5989 47.083C98.3242 46.743 99.1402 46.573 100.047 46.573ZM107.795 46.862H113.15C114.011 46.862 114.714 46.9867 115.258 47.236C115.802 47.4853 116.221 47.797 116.516 48.171C116.811 48.545 117.009 48.953 117.111 49.395C117.224 49.837 117.281 50.245 117.281 50.619C117.281 50.993 117.224 51.401 117.111 51.843C117.009 52.2737 116.811 52.676 116.516 53.05C116.221 53.424 115.802 53.7357 115.258 53.985C114.714 54.223 114.011 54.342 113.15 54.342H109.92V59H107.795V46.862ZM109.92 52.608H113.031C113.269 52.608 113.513 52.574 113.762 52.506C114.011 52.438 114.238 52.3303 114.442 52.183C114.657 52.0243 114.827 51.8203 114.952 51.571C115.088 51.3103 115.156 50.9873 115.156 50.602C115.156 50.2053 115.099 49.8767 114.986 49.616C114.873 49.3553 114.72 49.1513 114.527 49.004C114.334 48.8453 114.113 48.7377 113.864 48.681C113.615 48.6243 113.348 48.596 113.065 48.596H109.92V52.608ZM119.134 46.862H127.872V48.698H121.259V51.877H127.379V53.611H121.259V57.164H127.991V59H119.134V46.862ZM129.842 46.862H135.639C136.976 46.862 137.979 47.151 138.648 47.729C139.316 48.307 139.651 49.1117 139.651 50.143C139.651 50.721 139.566 51.2027 139.396 51.588C139.226 51.962 139.027 52.268 138.801 52.506C138.574 52.7327 138.347 52.897 138.121 52.999C137.905 53.101 137.747 53.169 137.645 53.203V53.237C137.826 53.2597 138.019 53.3163 138.223 53.407C138.438 53.4977 138.636 53.645 138.818 53.849C138.999 54.0417 139.146 54.2967 139.26 54.614C139.384 54.9313 139.447 55.328 139.447 55.804C139.447 56.518 139.498 57.1697 139.6 57.759C139.713 58.337 139.883 58.7507 140.11 59H137.832C137.673 58.7393 137.577 58.4503 137.543 58.133C137.52 57.8157 137.509 57.5097 137.509 57.215C137.509 56.6597 137.475 56.1837 137.407 55.787C137.339 55.379 137.214 55.0447 137.033 54.784C136.851 54.512 136.602 54.3137 136.285 54.189C135.979 54.0643 135.582 54.002 135.095 54.002H131.967V59H129.842V46.862ZM131.967 52.387H135.452C136.132 52.387 136.647 52.2283 136.999 51.911C137.35 51.5823 137.526 51.095 137.526 50.449C137.526 50.0637 137.469 49.752 137.356 49.514C137.242 49.2647 137.084 49.072 136.88 48.936C136.687 48.8 136.46 48.7093 136.2 48.664C135.95 48.6187 135.69 48.596 135.418 48.596H131.967V52.387Z" fill="white"/>
</svg>
