<svg id="Path" xmlns="http://www.w3.org/2000/svg" width="50.122" height="38.103" viewBox="0 0 50.122 38.103">
  <path id="Path_964" data-name="Path 964" d="M32.381,3.106,30.409,5.8s8.285,8.355,11.836,11.589c-4.153-.043-10.009-.057-15.971-.057C14.349,17.33,2,17.387,2,17.387v2.772s12.354-.045,24.278-.045c5.963,0,11.817.011,15.967.045C38.694,23.854,30.409,32.17,30.409,32.17l1.972,2.771L47.375,18.773,32.381,3.106M32.177,0l1.649,1.723L48.82,17.39l1.3,1.361-1.281,1.382L33.848,36.3l-1.671,1.8-1.425-2-1.973-2.772L27.8,31.954l1.192-1.2c.062-.063,4.738-4.756,8.539-8.626-3.1-.012-6.866-.018-11.253-.018-11.784,0-24.147.044-24.271.045L0,22.166V15.4l1.991-.009c.123,0,12.49-.057,24.283-.057,4.231,0,7.884.007,10.925.021-3.687-3.585-7.964-7.9-8.211-8.144l-1.2-1.213L28.8,4.616l1.973-2.692Z" fill="#ffffff"/>
</svg>
