<svg id="Group_4568" data-name="Group 4568" xmlns="http://www.w3.org/2000/svg" width="163.9" height="118" viewBox="0 0 163.9 118">
  <path id="Path_964" data-name="Path 964" d="M108.6,3.1l-6.9,9.4s29.1,29.3,41.5,40.7C99.5,52.8,2,52.1,2,52.1V62.9s97.5-.4,141.2,0c-12.5,13-41.5,42.1-41.5,42.1l6.9,9.7L161.2,58Z" fill="#fff"/>
  <path id="Path_965" data-name="Path 965" d="M108.6,3.1l-6.9,9.4s29.1,29.3,41.5,40.7C99.5,52.8,2,52.1,2,52.1V63s43.3-.2,85.2-.2c20.9,0,41.5,0,56,.2-12.5,13-41.5,42.1-41.5,42.1l6.9,9.7,52.6-56.7-52.6-55M108.4,0,110,1.7l52.6,55,1.3,1.4-1.3,1.4L110,116.2l-1.7,1.8-1.4-2-6.9-9.7-1-1.4,1.2-1.2c.3-.3,24.8-24.9,38.3-38.8-12.6-.1-29.8-.1-51.3-.1C45.8,64.8,2.5,65,2,65H0V50.1H2c.9,0,90.7.6,136,1.1C124.4,38.3,100.5,14.3,100.2,14L99,12.8l1-1.4L106.9,2Z" fill="#010202"/>
</svg>
