<svg xmlns="http://www.w3.org/2000/svg" width="163.899" height="118" viewBox="0 0 163.899 118">
  <g id="Group_4569" data-name="Group 4569" transform="translate(-186.9)">
    <path id="Path_966" data-name="Path 966" d="M295.5,3.1l-6.9,9.4s29.1,29.3,41.5,40.7c-43.7-.5-141.2-1.1-141.2-1.1V62.9s97.5-.4,141.2,0c-12.5,13-41.5,42.1-41.5,42.1l6.9,9.7L348.1,58Z" fill="#010202"/>
    <path id="Path_967" data-name="Path 967" d="M295.5,3.1l-6.9,9.4s29.1,29.3,41.5,40.7c-43.7-.5-141.2-1.1-141.2-1.1V63s43.3-.2,85.2-.2c20.9,0,41.5,0,56,.2-12.5,13-41.5,42.1-41.5,42.1l6.9,9.7L348.1,58,295.5,3.1M295.3,0l1.6,1.7,52.6,55,1.3,1.4-1.3,1.4-52.6,56.7-1.7,1.8-1.4-2-6.9-9.7-1-1.4,1.2-1.2c.3-.3,24.8-24.9,38.3-38.8-12.6-.1-29.8-.1-51.3-.1-41.4,0-84.7.2-85.2.2h-2V50.1h2c.9,0,90.7.6,136,1.1C311.3,38.3,287.4,14.3,287.1,14l-1.2-1.2,1-1.4L293.8,2Z" fill="#fff"/>
  </g>
</svg>
